<?xml version="1.0" encoding="UTF-8"?>
<svg xmlns="http://www.w3.org/2000/svg" version="1.1" viewBox="0 0 1400 950">
  <defs>
    <style>
      .cls-1, .cls-2, .cls-3 {
        fill: none;
      }

      .cls-4 {
        font-size: 13px;
      }

      .cls-4, .cls-5, .cls-6, .cls-7, .cls-8, .cls-9, .cls-10, .cls-11, .cls-12, .cls-13, .cls-14 {
        isolation: isolate;
      }

      .cls-4, .cls-5, .cls-8, .cls-10, .cls-11, .cls-12, .cls-13, .cls-14 {
        font-family: BentonSans-Regular, 'BentonSans Regular';
      }

      .cls-4, .cls-7, .cls-13 {
        fill: #111;
      }

      .cls-5, .cls-8, .cls-10, .cls-11, .cls-12, .cls-14 {
        font-size: 12px;
      }

      .cls-5, .cls-15 {
        fill: #ff7f0e;
      }

      .cls-2 {
        stroke: #777;
        stroke-dasharray: 7 7;
      }

      .cls-6 {
        fill: #fff;
        opacity: .9;
        stroke: #ddd;
      }

      .cls-7, .cls-9 {
        font-family: BentonSans-Bold, 'BentonSans Bold';
        font-size: 21px;
        font-weight: 700;
      }

      .cls-8, .cls-16 {
        fill: #9467bd;
      }

      .cls-17 {
        fill: #f9fafb;
        stroke: #444;
        stroke-width: 1.6px;
      }

      .cls-18 {
        stroke: #d62728;
      }

      .cls-18, .cls-11 {
        fill: #d62728;
      }

      .cls-9, .cls-19 {
        fill: #666;
      }

      .cls-20 {
        stroke: #1f77b4;
      }

      .cls-20, .cls-10 {
        fill: #1f77b4;
      }

      .cls-3 {
        stroke: #00b7aa;
        stroke-width: 4px;
      }

      .cls-12 {
        fill: #222;
      }

      .cls-13 {
        font-size: 48px;
      }

      .cls-21 {
        stroke: #2ca02c;
      }

      .cls-21, .cls-14 {
        fill: #2ca02c;
      }

      .cls-22 {
        fill: #00b7aa;
      }

      .cls-16 {
        stroke: #9467bd;
      }

      .cls-15 {
        stroke: #ff7f0e;
      }
    </style>
  </defs>
  <!-- Generator: Adobe Illustrator 28.7.1, SVG Export Plug-In . SVG Version: 1.2.0 Build 142)  -->
  <g>
    <g id="Layer_1">
      <text class="cls-13" transform="translate(628.5 428.4)"><tspan x="0" y="0">Informatics </tspan><tspan x="-10" y="57.6">Design Cycle</tspan></text>
      <circle class="cls-2" cx="759.1" cy="474.5" r="360"/>
      <g>
        <rect class="cls-17" x="664.6" y="73.5" width="280" height="90"/>
        <text class="cls-7" transform="translate(703.8 120.4)"><tspan x="0" y="0">Collect Information</tspan></text>
      </g>
      <g>
        <rect class="cls-17" x="1004.5" y="260.7" width="280" height="110"/>
        <text class="cls-7" transform="translate(1068.7 314.6)"><tspan x="0" y="0">Ask Questions</tspan></text>
        <text class="cls-4" transform="translate(1085.5 333.7)"><tspan x="0" y="0">(Problem‑framing)</tspan></text>
      </g>
      <g>
        <rect class="cls-17" x="1004.5" y="553.7" width="280" height="110"/>
        <text class="cls-7" transform="translate(1065 598.3)"><tspan x="0" y="0">Define Problem</tspan></text>
        <text class="cls-4" transform="translate(1069.1 626.7)"><tspan x="0" y="0">(Scope &amp; Requirements)</tspan></text>
      </g>
      <g>
        <rect class="cls-17" x="632.3" y="769.5" width="320" height="110"/>
        <text class="cls-7" transform="translate(750.9 819.5)"><tspan x="0" y="0">Imagine</tspan></text>
        <text class="cls-4" transform="translate(734.9 842.5)"><tspan x="0" y="0">(Brainstorm Ideas)</tspan></text>
      </g>
      <g>
        <rect class="cls-17" x="222.8" y="588.3" width="320" height="110"/>
        <text class="cls-7" transform="translate(304.8 635.3)"><tspan x="0" y="0">Develop &amp; Test</tspan></text>
        <text class="cls-4" transform="translate(348.8 661.3)"><tspan x="0" y="0">(Solutions)</tspan></text>
      </g>
      <g>
        <rect class="cls-17" x="173.4" y="256.5" width="360" height="140"/>
        <text class="cls-7" transform="translate(311 311.4)"><tspan x="0" y="0">Improve</tspan></text>
        <text class="cls-4" transform="translate(202.4 342.5)"><tspan x="0" y="0">(How did this work? How can we make it better?)</tspan></text>
      </g>
      <text class="cls-9" transform="translate(640 527.1)"><tspan x="0" y="0">All parts of the design </tspan><tspan x="-24.6" y="25.2">process are interconnected</tspan></text>
      <path class="cls-1" d=""/>
      <path class="cls-19" d="M1045,23.5"/>
      <path class="cls-1" d=""/>
      <path class="cls-19" d="M1045-301.5"/>
      <path class="cls-1" d=""/>
      <path class="cls-19" d="M700-476.5"/>
      <path class="cls-1" d=""/>
      <path class="cls-19" d="M380-381.5"/>
      <path class="cls-1" d=""/>
      <path class="cls-19" d="M330-71.5"/>
      <path class="cls-1" d=""/>
      <path class="cls-19" d="M700,78.5"/>
      <g>
        <text class="cls-12" transform="translate(34.9 60.9)"><tspan x="0" y="0">Domains</tspan></text>
        <g>
          <rect class="cls-20" x="34.9" y="66.9" width="16" height="16"/>
          <text class="cls-12" transform="translate(58.9 78.9)"><tspan x="0" y="0">Computer Science &amp; Data</tspan></text>
          <rect class="cls-15" x="34.9" y="98.9" width="16" height="16"/>
          <text class="cls-12" transform="translate(58.9 110.9)"><tspan x="0" y="0">Engineering (ISE, systems)</tspan></text>
          <rect class="cls-21" x="34.9" y="130.9" width="16" height="16"/>
          <text class="cls-12" transform="translate(58.9 142.9)"><tspan x="0" y="0">Social Sciences</tspan></text>
          <rect class="cls-16" x="34.9" y="162.9" width="16" height="16"/>
          <text class="cls-12" transform="translate(58.9 174.9)"><tspan x="0" y="0">Humanities / Policy / Ethics</tspan></text>
          <rect class="cls-18" x="34.9" y="194.9" width="16" height="16"/>
          <text class="cls-12" transform="translate(58.9 206.9)"><tspan x="0" y="0">Design / Information / UX</tspan></text>
        </g>
      </g>
      <g>
        <rect class="cls-6" x="973.7" y="98.7" width="397.9" height="139.9"/>
        <text class="cls-14" transform="translate(988.7 124.7)"><tspan x="0" y="0">• User &amp; field research (ethnography, interviews, surveys)</tspan></text>
        <text class="cls-8" transform="translate(988.7 148.7)"><tspan x="0" y="0">• Literature &amp; domain review (digital humanities)</tspan></text>
        <text class="cls-10" transform="translate(988.7 172.7)"><tspan x="0" y="0">• Data acquisition &amp; wrangling (data engineering, web scraping, APIs)</tspan></text>
        <text class="cls-11" transform="translate(988.7 196.7)"><tspan x="0" y="0">• Knowledge organization (ontologies, knowledge graphs)</tspan></text>
        <text class="cls-8" transform="translate(988.7 220.7)"><tspan x="0" y="0">• Ethics, law &amp; policy review (IRB, privacy, accessibility)</tspan></text>
      </g>
      <g>
        <rect class="cls-6" x="1017.8" y="392.9" width="363.1" height="115.2"/>
        <text class="cls-11" transform="translate(1033.8 416.9)"><tspan x="0" y="0">• Problem framing &amp; research questions (HCI, design research)</tspan></text>
        <text class="cls-14" transform="translate(1033.8 440.9)"><tspan x="0" y="0">• Theories &amp; constructs (psychology, sociology, economics)</tspan></text>
        <text class="cls-10" transform="translate(1033.8 464.9)"><tspan x="0" y="0">• Hypotheses &amp; measures (statistics, causal inference)</tspan></text>
        <text class="cls-8" transform="translate(1033.8 488.9)"><tspan x="0" y="0">• Stakeholder &amp; power mapping (policy, STS)</tspan></text>
      </g>
      <g>
        <rect class="cls-6" x="998.2" y="683.8" width="319.8" height="150"/>
        <text class="cls-5" transform="translate(1014.2 707.8)"><tspan x="0" y="0">• Requirements engineering &amp; use cases</tspan></text>
        <text class="cls-10" transform="translate(1014.2 731.8)"><tspan x="0" y="0">• Risk &amp; threat modeling (security, privacy)</tspan></text>
        <text class="cls-8" transform="translate(1014.2 755.8)"><tspan x="0" y="0">• Value‑sensitive &amp; responsible design (ethics, equity)</tspan></text>
        <text class="cls-5" transform="translate(1014.2 779.8)"><tspan x="0" y="0">• Feasibility &amp; systems architecture</tspan></text>
        <text class="cls-11" transform="translate(1014.2 803.8)"><tspan x="0" y="0">• Accessibility &amp; inclusion (UDL, disability studies)</tspan></text>
      </g>
      <g>
        <rect class="cls-6" x="173.4" y="724.5" width="402.5" height="150"/>
        <text class="cls-11" transform="translate(188.4 748.5)"><tspan x="0" y="0">• Ideation &amp; participatory design (co‑creation, storyboarding)</tspan></text>
        <text class="cls-10" transform="translate(188.4 772.5)"><tspan x="0" y="0">• Algorithmic approaches (AI/ML, optimization, IR)</tspan></text>
        <text class="cls-10" transform="translate(188.4 796.5)"><tspan x="0" y="0">• Data modeling (databases, visualization, knowledge representation)</tspan></text>
        <text class="cls-5" transform="translate(188.4 820.5)"><tspan x="0" y="0">• Prototyping (hardware/embedded, robotics)</tspan></text>
        <text class="cls-8" transform="translate(188.4 844.5)"><tspan x="0" y="0">• Speculative/critical design, futures thinking</tspan></text>
      </g>
      <g>
        <rect class="cls-6" x="104" y="416.4" width="345.3" height="134.7"/>
        <text class="cls-10" transform="translate(120 440.4)"><tspan x="0" y="0">• Software engineering (frontend/backend, mobile, cloud)</tspan></text>
        <text class="cls-5" transform="translate(120 464.4)"><tspan x="0" y="0">• DevOps/MLOps &amp; reproducibility</tspan></text>
        <text class="cls-5" transform="translate(120 488.4)"><tspan x="0" y="0">• Embedded/IoT systems &amp; robotics</tspan></text>
        <text class="cls-11" transform="translate(120 512.4)"><tspan x="0" y="0">• Usability testing, heuristic evals, A/B tests</tspan></text>
        <text class="cls-10" transform="translate(120 536.4)"><tspan x="0" y="0">• Security, privacy &amp; compliance testing</tspan></text>
      </g>
      <g>
        <rect class="cls-6" x="293.5" y="99.3" width="338.8" height="138.6"/>
        <text class="cls-14" transform="translate(309.5 123.3)"><tspan x="0" y="0">• Evaluation &amp; impact assessment (stats, field trials, SNA)</tspan></text>
        <text class="cls-8" transform="translate(309.5 147.3)"><tspan x="0" y="0">• Fairness, accountability, transparency, interpretability</tspan></text>
        <text class="cls-5" transform="translate(309.5 171.3)"><tspan x="0" y="0">• Monitoring &amp; reliability (SRE, telemetry)</tspan></text>
        <text class="cls-14" transform="translate(309.5 195.3)"><tspan x="0" y="0">• Post‑deployment research (ethnography, diary studies)</tspan></text>
        <text class="cls-11" transform="translate(309.5 219.3)"><tspan x="0" y="0">• Iteration, backlog &amp; roadmap (product/change mgmt)</tspan></text>
      </g>
      <g>
        <path class="cls-3" d="M745.5,651c-18.1,3.6-73.4,12.2-124.4-19.1-57.4-35.3-88.5-108.2-79-186.3"/>
        <polygon class="cls-22" points="561.1 454.8 547.3 417.4 521.8 448 561.1 454.8"/>
      </g>
      <g>
        <path class="cls-3" d="M772.7,314.1c18.1-3.6,73.4-12.2,124.4,19.1,57.4,35.3,88.5,108.2,79,186.3"/>
        <polygon class="cls-22" points="957.2 510.3 970.9 547.8 996.5 517.1 957.2 510.3"/>
      </g>
    </g>
  </g>
</svg>